<?xml version="1.0" encoding="utf-8"?>
<!-- Generator: Adobe Illustrator 19.2.0, SVG Export Plug-In . SVG Version: 6.00 Build 0)  -->
<svg version="1.1" id="Layer_1" xmlns="http://www.w3.org/2000/svg" xmlns:xlink="http://www.w3.org/1999/xlink" x="0px" y="0px"
	 viewBox="0 0 550 35.6" style="enable-background:new 0 0 550 35.6;" xml:space="preserve">
<g>
	<path d="M5.8,35.2H0V0.8h9.1l10.4,21.6L29.8,0.8h9v34.4H33V8.4L21,32.2h-3.2L5.8,8.4V35.2z"/>
	<path d="M55.7,27.4l-3.4,7.8H46L61.2,0.8h6.2l15.2,34.4h-6.2l-3.4-7.8H55.7z M70.5,22L64.3,7.9L58,22H70.5z"/>
	<path d="M89.8,0.8h5.8v34.4h-5.8V0.8z"/>
	<path d="M133.4,0.8h5.8v34.4h-6.3l-19.5-25.1v25.1h-5.8V0.8h5.8l20,25.7V0.8z"/>
	<path d="M164.2,6.1v29.1h-5.8V6.1h-10.4V0.8h26.7v5.3H164.2z"/>
	<path d="M207.5,0.8v5.5h-18.3v9.1h16.5v5.2h-16.5v9.2h18.9v5.5h-24.7V0.8H207.5z"/>
	<path d="M243.8,0.8h5.8v34.4h-6.3l-19.5-25.1v25.1H218V0.8h5.8l20,25.7V0.8z"/>
	<path d="M266.4,27.4l-3.4,7.8h-6.2l15.2-34.4h6.2l15.2,34.4h-6.2l-3.4-7.8H266.4z M281.3,22L275,7.9L268.8,22H281.3z"/>
	<path d="M326.3,0.8h5.8v34.4h-6.3l-19.5-25.1v25.1h-5.8V0.8h5.8l20,25.7V0.8z"/>
	<path d="M359.8,30c2,0,3.7-0.3,5.2-1s3-1.7,4.5-3.2l3.7,3.8c-3.6,4-8.1,6.1-13.3,6.1c-5.2,0-9.5-1.7-12.9-5
		c-3.4-3.3-5.1-7.6-5.1-12.7s1.7-9.4,5.2-12.8C350.6,1.7,355,0,360.4,0s9.8,2,13.4,5.9l-3.7,4c-1.6-1.6-3.2-2.7-4.6-3.3
		c-1.5-0.6-3.2-0.9-5.1-0.9c-3.5,0-6.4,1.1-8.8,3.4c-2.4,2.2-3.5,5.1-3.5,8.6s1.2,6.4,3.5,8.8C353.8,28.8,356.6,30,359.8,30z"/>
	<path d="M406.9,0.8v5.5h-18.3v9.1h16.5v5.2h-16.5v9.2h18.9v5.5h-24.7V0.8H406.9z"/>
	<g>
		<path d="M424.9,21.9l-1.5,3.3h-2.6l6.4-14.6h2.6l6.4,14.6h-2.6l-1.5-3.3H424.9z M431.3,19.6l-2.7-6l-2.7,6H431.3z"/>
		<path d="M446.1,23c0.8,0,1.6-0.1,2.2-0.4c0.6-0.3,1.3-0.7,1.9-1.4l1.6,1.6c-1.5,1.7-3.4,2.6-5.6,2.6s-4-0.7-5.5-2.1
			c-1.5-1.4-2.2-3.2-2.2-5.4s0.7-4,2.2-5.4c1.5-1.4,3.4-2.2,5.6-2.2c2.3,0,4.2,0.8,5.7,2.5l-1.6,1.7c-0.7-0.7-1.4-1.1-2-1.4
			c-0.6-0.3-1.3-0.4-2.2-0.4c-1.5,0-2.7,0.5-3.7,1.4c-1,1-1.5,2.2-1.5,3.7c0,1.5,0.5,2.7,1.5,3.7C443.6,22.5,444.7,23,446.1,23z"/>
		<path d="M462.5,23c0.8,0,1.6-0.1,2.2-0.4c0.6-0.3,1.3-0.7,1.9-1.4l1.6,1.6c-1.5,1.7-3.4,2.6-5.6,2.6c-2.2,0-4-0.7-5.5-2.1
			c-1.5-1.4-2.2-3.2-2.2-5.4s0.7-4,2.2-5.4c1.5-1.4,3.4-2.2,5.6-2.2c2.3,0,4.2,0.8,5.7,2.5l-1.6,1.7c-0.7-0.7-1.4-1.1-2-1.4
			c-0.6-0.3-1.3-0.4-2.2-0.4c-1.5,0-2.7,0.5-3.7,1.4c-1,1-1.5,2.2-1.5,3.7c0,1.5,0.5,2.7,1.5,3.7C460,22.5,461.2,23,462.5,23z"/>
		<path d="M484.2,23.2c-1.5,1.4-3.3,2.2-5.5,2.2s-4-0.7-5.5-2.2c-1.5-1.4-2.2-3.2-2.2-5.4s0.7-4,2.2-5.4c1.5-1.4,3.3-2.2,5.5-2.2
			s4,0.7,5.5,2.2c1.5,1.4,2.2,3.2,2.2,5.4S485.7,21.7,484.2,23.2z M482.4,14c-1-1-2.2-1.5-3.7-1.5s-2.7,0.5-3.7,1.5
			c-1,1-1.5,2.3-1.5,3.8c0,1.5,0.5,2.7,1.5,3.8c1,1,2.2,1.5,3.7,1.5s2.7-0.5,3.7-1.5c1-1,1.5-2.3,1.5-3.8
			C483.9,16.3,483.4,15.1,482.4,14z"/>
		<path d="M493.9,21.9c0.7,0.8,1.6,1.2,2.7,1.2c1.1,0,2-0.4,2.7-1.2c0.7-0.8,1-1.8,1-3.2v-8.1h2.5v8.2c0,2.1-0.6,3.7-1.7,4.9
			c-1.2,1.1-2.6,1.7-4.5,1.7s-3.3-0.6-4.5-1.7c-1.2-1.1-1.7-2.8-1.7-4.9v-8.2h2.5v8.1C492.9,20,493.2,21.1,493.9,21.9z"/>
		<path d="M518.6,10.6h2.5v14.6h-2.7l-8.3-10.7v10.7h-2.5V10.6h2.5l8.5,10.9V10.6z"/>
		<path d="M531.7,12.9v12.4h-2.5V12.9h-4.4v-2.3h11.3v2.3H531.7z"/>
		<path d="M544.3,12.5c-0.7,0-1.3,0.1-1.8,0.4c-0.5,0.3-0.7,0.7-0.7,1.3s0.2,1,0.7,1.4s1.4,0.7,2.9,1c1.5,0.4,2.6,0.9,3.4,1.5
			c0.8,0.7,1.1,1.6,1.1,2.9c0,1.3-0.5,2.3-1.4,3.1c-1,0.8-2.2,1.2-3.8,1.2c-2.3,0-4.3-0.8-6.1-2.4l1.5-1.9c1.5,1.3,3,1.9,4.6,1.9
			c0.8,0,1.4-0.2,1.9-0.5s0.7-0.8,0.7-1.4c0-0.6-0.2-1-0.7-1.3c-0.4-0.3-1.2-0.6-2.3-0.9c-1.1-0.3-1.9-0.5-2.4-0.7
			c-0.6-0.2-1.1-0.5-1.5-0.8c-0.9-0.7-1.3-1.7-1.3-3c0-1.3,0.5-2.4,1.5-3.1c1-0.7,2.2-1.1,3.6-1.1c0.9,0,1.9,0.2,2.8,0.5
			c0.9,0.3,1.7,0.7,2.4,1.3l-1.3,1.9c-0.4-0.4-1-0.7-1.8-1C545.7,12.6,545,12.5,544.3,12.5z"/>
	</g>
</g>
</svg>
